<svg xmlns="http://www.w3.org/2000/svg" xmlns:xlink="http://www.w3.org/1999/xlink" version="1.1" x="0px" y="0px" viewBox="0 0 68.5 100" enable-background="new 0 0 68.5 100" xml:space="preserve"><g><path d="M44.617,84.126L23.542,86.34c0,0-0.973,0.102-0.872,1.072l0.142,1.354c0,0,0.102,0.969,1.076,0.873L44.96,87.42   c0,0,0.975-0.102,0.872-1.07l-0.142-1.351C45.69,84.999,45.583,84.023,44.617,84.126z"></path><path d="M36.947,90.636l-5.391,0.611c0,0-0.979,0-0.979,0.978v1.354c0,0,0,0.979,0.979,0.979h5.391c0,0,0.974,0,0.974-0.979v-1.963   C37.921,91.616,37.921,90.636,36.947,90.636z"></path><path d="M36.854,5.494c-1.869-0.093-3.704-0.042-5.571,0C18.079,6.174,7.245,17.662,6.613,30.711   c0.006,1.553-0.014,3.105,0.013,4.652c0.257,0.879,0.291,2.095,0.395,2.797c1.613,10.744,10.831,18.797,11.72,28.421   c0.288,3.114,0.253,7.651,3.963,8.856c-0.033,0.117-0.051,0.244-0.033,0.4l0.142,1.354c0,0,0.102,0.97,1.076,0.871l21.072-2.22   c0,0,0.441-0.051,0.697-0.385c3.199-1.133,3.699-5.399,4.105-8.832c1.256-10.418,12.15-22.719,12.123-31.993v-4.47   C61.237,17.013,50.146,5.72,36.854,5.494z"></path><path d="M44.617,78.338l-21.076,2.215c0,0-0.973,0.104-0.872,1.075l0.142,1.353c0,0,0.102,0.972,1.076,0.869l21.072-2.216   c0,0,0.975-0.102,0.872-1.073l-0.142-1.35C45.69,79.211,45.583,78.236,44.617,78.338z"></path></g></svg>