<svg xmlns="http://www.w3.org/2000/svg" xmlns:xlink="http://www.w3.org/1999/xlink" version="1.1" x="0px" y="0px" viewBox="0 0 100 100" enable-background="new 0 0 100 100" xml:space="preserve"><g><path d="M57.568,87.405l-15.383,1.616c0,0-0.711,0.074-0.637,0.783l0.104,0.986c0,0,0.074,0.707,0.785,0.637l15.381-1.619   c0,0,0.711-0.071,0.638-0.78l-0.104-0.985C58.354,88.043,58.273,87.331,57.568,87.405z"></path><path d="M51.97,92.157l-3.935,0.446c0,0-0.714,0-0.714,0.713v0.99c0,0,0,0.715,0.714,0.715h3.935c0,0,0.711,0,0.711-0.715v-1.435   C52.681,92.873,52.681,92.157,51.97,92.157z"></path><path d="M51.9,30.011c-1.363-0.067-2.704-0.031-4.065,0c-9.638,0.496-17.546,8.881-18.007,18.406   c0.005,1.133-0.01,2.267,0.01,3.396c0.188,0.643,0.212,1.529,0.288,2.043c1.178,7.842,7.905,13.721,8.555,20.744   c0.21,2.273,0.185,5.586,2.893,6.465c-0.024,0.086-0.037,0.18-0.024,0.293l0.104,0.988c0,0,0.074,0.707,0.785,0.635l15.381-1.618   c0,0,0.322-0.037,0.51-0.28c2.335-0.827,2.699-3.941,2.996-6.447c0.918-7.604,8.869-16.582,8.851-23.353v-3.264   C69.699,38.419,61.605,30.176,51.9,30.011z"></path><path d="M57.568,83.182l-15.383,1.617c0,0-0.711,0.075-0.637,0.783l0.104,0.987c0,0,0.074,0.709,0.785,0.635l15.381-1.617   c0,0,0.711-0.073,0.638-0.784l-0.104-0.983C58.354,83.818,58.273,83.105,57.568,83.182z"></path><path d="M94.199,41.522l-0.242-0.96c0,0-0.184-0.689-0.874-0.516l-14.976,3.855c0,0-0.697,0.18-0.514,0.868l0.245,0.964   c0,0,0.179,0.689,0.869,0.512l14.978-3.854C93.686,42.392,94.376,42.214,94.199,41.522z"></path><path d="M68.605,28.167c0,0,0.498,0.507,1.008,0.006L80.625,17.31c0,0,0.51-0.503,0.006-1.012l-0.695-0.705   c0,0-0.504-0.506-1.014-0.006L67.915,26.452c0,0-0.511,0.502-0.007,1.008L68.605,28.167z"></path><path d="M49.55,21.88l0.99-0.001c0,0,0.713-0.005,0.713-0.721L51.174,5.691c0,0-0.005-0.717-0.72-0.713l-0.99,0.003   c0,0-0.716,0.008-0.714,0.722l0.08,15.468C48.83,21.171,48.835,21.888,49.55,21.88z"></path><path d="M21.898,43.903L6.919,40.048c-0.69-0.175-0.871,0.517-0.871,0.517l-0.247,0.961c-0.177,0.69,0.514,0.868,0.514,0.868   l14.981,3.854c0.69,0.179,0.868-0.512,0.868-0.512l0.245-0.964C22.589,44.084,21.898,43.903,21.898,43.903z"></path><path d="M30.388,28.173c0.512,0.502,1.013-0.006,1.013-0.006l0.695-0.707c0.504-0.506-0.005-1.008-0.005-1.008L21.083,15.587   c-0.508-0.5-1.014,0.007-1.014,0.007l-0.694,0.704c-0.503,0.509,0.006,1.012,0.006,1.012L30.388,28.173z"></path></g></svg>