<svg xmlns="http://www.w3.org/2000/svg" xmlns:xlink="http://www.w3.org/1999/xlink" version="1.1" x="0px" y="0px" viewBox="0 0 100 100" enable-background="new 0 0 100 100" xml:space="preserve"><path d="M14.5,5v90h71V5H14.5z M51.67,49.897v-1.043h29.611v1.043H51.67z M81.281,9.905v0.646H51.67V9.905H81.281z M48.33,9.905  v0.646H18.719V9.905H48.33z M18.719,11.652H48.33v1.087H18.719V11.652z M18.719,13.841H48.33v1.087H18.719V13.841z M48.33,16.029  v1.087H18.719v-1.087H48.33z M81.281,19.305H51.67v-1.087h29.611V19.305z M81.281,20.406v1.087H51.67v-1.087H81.281z M81.281,22.594  v1.087H51.67v-1.087H81.281z M81.281,24.783v1.087H51.67v-1.087H81.281z M81.281,17.116H51.67v-1.087h29.611V17.116z M48.33,18.218  v1.087H18.719v-1.087H48.33z M48.33,20.406v1.087H18.719v-1.087H48.33z M48.33,22.594v1.087H18.719v-1.087H48.33z M48.33,24.783  v1.087H18.719v-1.087H48.33z M18.719,26.971H48.33v1.087H18.719V26.971z M18.719,29.159H48.33v1.088H18.719V29.159z M48.33,31.347  v1.087H18.719v-1.087H48.33z M81.281,39H51.67v-1.087h29.611V39z M81.281,36.811H51.67v-1.087h29.611V36.811z M81.281,34.623H51.67  v-1.086h29.611V34.623z M81.281,32.435H51.67v-1.087h29.611V32.435z M48.33,33.536v1.086H18.719v-1.086H48.33z M48.33,35.724v1.087  H18.719v-1.087H48.33z M48.33,37.913V39H18.719v-1.087H48.33z M48.33,40.101v1.087H18.719v-1.087H48.33z M18.719,46.666H48.33v1.087  H18.719V46.666z M18.719,45.564v-1.087H48.33v1.087H18.719z M18.719,43.377V42.29H48.33v1.087H18.719z M18.719,48.854H48.33v1.043  H18.719V48.854z M81.281,47.753H51.67v-1.087h29.611V47.753z M51.67,45.564v-1.087h29.611v1.087H51.67z M51.67,43.377V42.29h29.611  v1.087H51.67z M51.67,41.188v-1.087h29.611v1.087H51.67z M81.281,30.247H51.67v-1.088h29.611V30.247z M51.67,28.058v-1.087h29.611  v1.087H51.67z M81.281,14.928H51.67v-1.087h29.611V14.928z M51.67,12.739v-1.087h29.611v1.087H51.67z M18.719,52.306H48.33v38.878  H18.719V52.306z M51.67,91.184V52.306h24.691v21.943h-0.064c-0.292,0-0.528,0.214-0.528,0.477v2.564  c0,0.264,0.236,0.477,0.528,0.477h1.053c0.292,0,0.528-0.213,0.528-0.477v-2.564c0-0.263-0.236-0.477-0.528-0.477h-0.065V52.306  h3.997v38.878H51.67z"></path></svg>