<svg xmlns="http://www.w3.org/2000/svg" xmlns:xlink="http://www.w3.org/1999/xlink" version="1.1" x="0px" y="0px" viewBox="0 0 100 100" enable-background="new 0 0 100 100" xml:space="preserve"><polygon points="50.135,19.916 5.336,49.951 5.34,56.229 50.135,25.859 94.934,56.229 94.934,49.94 "></polygon><polygon points="7.92,56.277 7.92,79.42 32.766,79.42 32.766,56.611 67.419,56.611 67.419,79.42 92.284,79.42 92.284,56.277   50.102,27.764 "></polygon><rect x="34.395" y="58.023" width="31.396" height="1.264"></rect><g><g><path d="M64.5,73.57h-0.537l0.717,0.716V73.75C64.68,73.651,64.599,73.57,64.5,73.57z"></path><path d="M61.255,73.57c-0.101,0-0.181,0.081-0.181,0.18v3.245c0,0.101,0.08,0.182,0.181,0.182H64.5c0.099,0,0.18-0.081,0.18-0.182    v-2.417l-1.008-1.008H61.255z M63.423,76.981h-0.167v-0.167h0.167V76.981z M64.01,76.814h0.168v0.167H64.01V76.814z     M63.815,76.981h-0.166v-0.167h0.166V76.981z"></path></g><g><path d="M60.249,73.57h-0.537l0.717,0.716V73.75C60.429,73.651,60.349,73.57,60.249,73.57z"></path><path d="M57.004,73.57c-0.1,0-0.181,0.081-0.181,0.18v3.245c0,0.101,0.081,0.182,0.181,0.182h3.245c0.1,0,0.18-0.081,0.18-0.182    v-2.417l-1.008-1.008H57.004z M59.173,76.981h-0.168v-0.167h0.168V76.981z M59.76,76.814h0.167v0.167H59.76V76.814z     M59.565,76.981h-0.166v-0.167h0.166V76.981z"></path></g><g><path d="M56.101,73.57h-0.537l0.718,0.716V73.75C56.282,73.651,56.2,73.57,56.101,73.57z"></path><path d="M52.855,73.57c-0.1,0-0.18,0.081-0.18,0.18v3.245c0,0.101,0.08,0.182,0.18,0.182h3.245c0.099,0,0.181-0.081,0.181-0.182    v-2.417l-1.009-1.008H52.855z M55.024,76.981h-0.166v-0.167h0.166V76.981z M55.612,76.814h0.166v0.167h-0.166V76.814z     M55.417,76.981h-0.166v-0.167h0.166V76.981z"></path></g><g><path d="M56.101,69.318h-0.537l0.718,0.716v-0.536C56.282,69.399,56.2,69.318,56.101,69.318z"></path><path d="M52.855,69.318c-0.1,0-0.18,0.081-0.18,0.18v3.245c0,0.101,0.08,0.182,0.18,0.182h3.245c0.099,0,0.181-0.081,0.181-0.182    v-2.417l-1.009-1.008H52.855z M55.024,72.729h-0.166v-0.166h0.166V72.729z M55.612,72.563h0.166v0.166h-0.166V72.563z     M55.417,72.729h-0.166v-0.166h0.166V72.729z"></path></g><g><path d="M60.352,69.318h-0.537l0.718,0.716v-0.536C60.532,69.399,60.45,69.318,60.352,69.318z"></path><path d="M57.106,69.318c-0.101,0-0.18,0.081-0.18,0.18v3.245c0,0.101,0.079,0.182,0.18,0.182h3.245    c0.099,0,0.181-0.081,0.181-0.182v-2.417l-1.009-1.008H57.106z M59.274,72.729h-0.166v-0.166h0.166V72.729z M59.862,72.563h0.167    v0.166h-0.167V72.563z M59.668,72.729h-0.166v-0.166h0.166V72.729z"></path></g></g><g><g><path d="M35.99,67.735l0.24,4.077c0,0.238,0.172,0.433,0.396,0.473c-0.002,0.021-0.005,0.042-0.005,0.063v4.38    c0,0.248,0.201,0.448,0.449,0.448c0.017,0,0.032,0,0.046-0.002h0.969c0.247,0,0.449,0.04,0.449-0.207s-0.201-0.45-0.449-0.45    l-0.566-0.135v-4.034c0-0.026-0.003-0.05-0.006-0.075c0.205-0.052,0.356-0.239,0.356-0.461l-0.027-1.897l1.125,1.297    c0.151,0.173,0.415,0.191,0.589,0.039c0.173-0.149,0.193-0.412,0.042-0.587l-1.774-2.044l-0.007-0.578l-1.345-0.788    C36.205,67.254,35.99,67.469,35.99,67.735z"></path><circle cx="37.068" cy="66.183" r="0.926"></circle></g><g><path d="M42.871,69.658h-0.353l0.474,0.471v-0.354C42.992,69.71,42.938,69.658,42.871,69.658z"></path><path d="M40.729,69.658c-0.066,0-0.118,0.052-0.118,0.117v2.145c0,0.064,0.053,0.119,0.118,0.119h2.142    c0.066,0,0.121-0.055,0.121-0.119v-1.599l-0.667-0.663H40.729L40.729,69.658z M42.16,71.907h-0.11v-0.108h0.11V71.907z     M42.549,71.799h0.11v0.108h-0.11V71.799z M42.421,71.907H42.31v-0.108h0.111V71.907z"></path></g><g><path d="M42.871,72.39h-0.353l0.474,0.475V72.51C42.992,72.444,42.938,72.39,42.871,72.39z"></path><path d="M40.729,72.39c-0.066,0-0.118,0.055-0.118,0.12v2.142c0,0.069,0.053,0.121,0.118,0.121h2.142    c0.066,0,0.121-0.052,0.121-0.121v-1.595l-0.667-0.667H40.729z M42.16,74.645h-0.11v-0.109h0.11V74.645z M42.549,74.535h0.11    v0.109h-0.11V74.535z M42.421,74.645H42.31v-0.109h0.111V74.645z"></path></g><g><path d="M45.606,72.39h-0.354l0.472,0.475v-0.354C45.725,72.444,45.671,72.39,45.606,72.39z"></path><path d="M43.462,72.39c-0.066,0-0.119,0.055-0.119,0.12v2.142c0,0.069,0.053,0.121,0.119,0.121h2.144    c0.065,0,0.119-0.052,0.119-0.121v-1.595l-0.667-0.667H43.462z M44.895,74.645h-0.11v-0.109h0.11V74.645z M45.283,74.535h0.11    v0.109h-0.11V74.535z M45.155,74.645h-0.11v-0.109h0.11V74.645z"></path></g><polygon points="40.365,74.938 40.365,70.928 40.365,70.928 40.365,70.599 39.123,70.599 39.123,70.928 40.034,70.928    40.034,74.938 40.034,75.268 46.258,75.268 46.258,74.938  "></polygon><path d="M41.354,75.525c-0.457,0-0.825,0.369-0.825,0.827c0,0.456,0.369,0.824,0.825,0.824s0.826-0.368,0.826-0.824   C42.179,75.895,41.81,75.525,41.354,75.525z M41.354,76.611c-0.143,0-0.259-0.116-0.259-0.259c0-0.142,0.115-0.259,0.259-0.259   c0.144,0,0.26,0.117,0.26,0.259C41.613,76.495,41.498,76.611,41.354,76.611z"></path><path d="M44.685,75.525c-0.456,0-0.825,0.369-0.825,0.827c0,0.456,0.37,0.824,0.825,0.824c0.457,0,0.826-0.368,0.826-0.824   C45.511,75.895,45.14,75.525,44.685,75.525z M44.685,76.611c-0.142,0-0.259-0.116-0.259-0.259c0-0.142,0.117-0.259,0.259-0.259   c0.144,0,0.259,0.117,0.259,0.259C44.943,76.495,44.829,76.611,44.685,76.611z"></path></g></svg>