<svg xmlns="http://www.w3.org/2000/svg" xmlns:xlink="http://www.w3.org/1999/xlink" version="1.1" x="0px" y="0px" viewBox="0 0 100 100" enable-background="new 0 0 100 100" xml:space="preserve"><g><polygon points="50.135,19.916 5.336,49.951 5.34,56.229 50.135,25.859 94.934,56.229 94.934,49.94  "></polygon><polygon points="7.92,56.277 7.92,79.42 32.766,79.42 32.766,56.612 67.419,56.612 67.419,79.42 92.284,79.42 92.284,56.277    50.102,27.764  "></polygon><rect x="34.395" y="58.142" width="31.396" height="2.054"></rect><rect x="34.395" y="61.343" width="31.396" height="2.053"></rect><rect x="34.395" y="64.543" width="31.396" height="2.055"></rect><rect x="34.395" y="67.823" width="31.396" height="2.054"></rect><rect x="34.395" y="71.023" width="31.396" height="2.054"></rect><rect x="34.395" y="74.224" width="31.396" height="2.055"></rect><rect x="34.395" y="77.424" width="31.396" height="2.054"></rect></g></svg>